<?xml version="1.0" standalone="no"?>
<!DOCTYPE svg PUBLIC "-//W3C//DTD SVG 20010904//EN"
 "http://www.w3.org/TR/2001/REC-SVG-20010904/DTD/svg10.dtd">
<svg version="1.0" xmlns="http://www.w3.org/2000/svg"
 width="1600.000000pt" height="1600.000000pt" viewBox="0 0 1600.000000 1600.000000"
 preserveAspectRatio="xMidYMid meet">
<metadata>
Created by potrace 1.11, written by Peter Selinger 2001-2013
</metadata>
<g transform="translate(0.000000,1600.000000) scale(0.100000,-0.100000)"
fill="#000000" stroke="none">
<path d="M3227 15743 c-2 -5 -3 -3547 -3 -7873 l1 -7865 1260 -3 1260 -2 -1
7867 c-1 4328 -2 7871 -3 7876 0 4 -565 7 -1255 7 -690 0 -1256 -3 -1259 -7z"/>
<path d="M6893 14526 l0 -1224 23 -5 c13 -2 24 0 24 4 0 5 6 6 14 3 8 -3 363
-7 788 -9 425 -2 789 -6 808 -9 19 -3 53 -8 75 -11 47 -6 139 -23 175 -31 14
-3 39 -8 55 -11 17 -2 35 -9 41 -14 6 -5 14 -6 17 -3 3 3 12 2 19 -2 7 -5 18
-9 23 -9 6 -1 17 -4 25 -7 8 -4 42 -16 75 -28 88 -32 199 -81 206 -92 3 -5 9
-9 13 -9 12 1 76 -33 76 -41 0 -4 6 -8 13 -8 10 0 73 -44 159 -110 40 -32 168
-160 208 -210 54 -67 140 -194 140 -207 0 -6 4 -13 8 -15 13 -5 123 -236 137
-288 1 -3 5 -14 9 -25 5 -11 10 -27 13 -35 4 -8 8 -26 10 -40 2 -13 8 -29 12
-35 8 -9 60 -207 66 -250 1 -11 8 -49 15 -85 7 -36 14 -83 15 -105 2 -22 4
-40 5 -40 5 0 10 -47 12 -112 2 -40 7 -73 11 -73 5 0 5 -6 0 -12 -12 -20 -14
-46 -3 -53 6 -4 8 -11 4 -16 -11 -19 -14 -58 -4 -64 6 -4 7 -11 4 -17 -4 -6
-9 -43 -10 -82 -3 -64 -10 -123 -14 -136 -2 -3 -2 -8 -1 -12 0 -6 -7 -47 -24
-138 -12 -65 -19 -91 -43 -175 -14 -49 -25 -96 -25 -102 0 -7 -3 -13 -7 -13
-4 0 -12 -18 -19 -41 -16 -51 -93 -210 -131 -269 -16 -25 -33 -52 -37 -60 -4
-8 -12 -20 -17 -26 -6 -7 -20 -25 -31 -40 -59 -85 -318 -314 -354 -314 -6 0
-11 -5 -11 -11 0 -5 -4 -8 -9 -4 -5 3 -12 1 -16 -5 -7 -11 -173 -92 -220 -106
-5 -2 -37 -13 -70 -24 -59 -21 -73 -25 -116 -35 -11 -2 -28 -6 -37 -9 -9 -3
-30 -8 -47 -11 -16 -2 -41 -7 -55 -10 -44 -9 -74 -14 -130 -20 -30 -4 -71 -9
-90 -12 -19 -2 -422 -6 -895 -8 -473 -2 -865 -4 -871 -4 -8 -1 -11 -341 -11
-1226 l0 -1225 454 2 c249 2 453 -1 453 -5 0 -5 5 -5 11 -2 15 10 149 11 149
2 0 -5 5 -5 11 -2 15 10 149 11 149 2 0 -5 5 -5 11 -2 15 10 149 11 149 2 0
-5 5 -5 11 -2 15 10 149 11 149 2 0 -5 5 -5 11 -2 15 10 149 11 149 2 0 -5 5
-5 10 -2 6 3 96 7 200 8 105 1 190 6 190 10 0 4 8 3 19 -2 10 -6 21 -8 24 -5
3 4 46 8 94 11 118 6 178 10 178 12 0 1 25 4 55 6 30 2 80 7 110 10 30 4 69 8
85 10 41 4 125 15 155 20 14 3 43 7 65 11 22 3 51 7 65 10 14 2 41 7 60 10 19
3 42 7 50 9 8 3 32 7 54 11 21 3 48 8 60 10 11 3 38 8 59 11 20 3 37 10 37 15
0 5 4 7 9 4 4 -3 62 8 127 25 66 17 124 32 129 34 6 1 17 5 25 8 8 3 56 18
105 33 50 14 94 30 100 35 5 5 15 9 22 9 7 0 61 23 120 51 60 28 113 52 120
52 7 0 15 7 17 14 3 8 10 11 16 8 5 -3 10 -1 10 6 0 7 3 10 6 6 8 -8 268 150
312 191 7 6 16 12 20 12 4 0 23 14 42 30 19 16 40 33 45 37 100 76 201 169
321 294 63 67 211 251 243 302 12 20 27 37 32 37 6 0 7 5 4 10 -3 6 -2 10 3
10 5 0 12 8 16 18 3 9 29 53 57 97 55 84 209 378 209 397 0 6 8 20 18 31 9 11
11 17 3 12 -10 -5 -9 -1 2 16 13 20 60 133 62 149 0 3 3 10 7 15 19 30 142
428 155 500 3 17 9 38 15 48 5 10 7 21 4 24 -2 3 -1 15 4 27 4 13 11 40 15 62
4 21 8 44 9 49 3 12 16 72 21 100 2 11 4 20 5 20 1 0 4 14 5 30 2 17 6 41 9
55 3 14 8 45 11 70 3 25 8 56 11 70 3 13 7 40 10 60 2 19 6 51 9 70 13 89 15
109 20 165 3 33 8 83 11 110 3 28 7 82 9 120 2 39 4 70 5 70 2 0 7 104 15 300
6 156 6 140 4 196 -1 25 1 51 5 57 3 6 2 14 -4 17 -8 5 -8 11 -1 19 6 7 8 16
5 19 -10 10 -10 87 -1 87 5 0 5 5 1 11 -3 6 -8 68 -10 137 -3 126 -7 207 -20
372 -4 47 -7 91 -7 98 0 6 -3 12 -6 12 -3 0 -6 21 -7 48 0 26 -4 74 -8 107 -4
33 -9 76 -11 95 -3 19 -8 51 -12 70 -3 19 -8 46 -9 60 -1 14 -3 25 -4 25 -1 0
-3 9 -4 20 -6 43 -24 136 -38 195 -5 25 -12 59 -15 75 -6 37 -9 46 -15 65 -3
8 -12 44 -21 80 -8 36 -23 90 -32 120 -21 73 -21 70 -30 105 -4 17 -12 36 -18
43 -5 6 -7 12 -4 12 20 0 -188 510 -216 531 -5 3 -8 8 -6 10 5 8 -80 169 -94
180 -5 3 -9 10 -9 15 -1 11 -11 28 -114 184 -45 69 -91 134 -101 145 -10 11
-25 29 -33 41 -47 66 -202 238 -289 318 -24 23 -63 59 -87 82 -24 23 -58 52
-76 65 -17 13 -36 29 -42 34 -21 20 -122 93 -186 136 -36 24 -66 47 -68 51 -2
5 -8 8 -12 8 -5 0 -38 18 -72 40 -35 22 -69 40 -75 40 -7 0 -13 3 -13 8 0 4
-10 12 -23 18 -12 6 -74 37 -137 69 -63 33 -117 59 -120 60 -3 0 -39 14 -80
32 -41 18 -104 43 -140 56 -36 14 -74 28 -85 32 -11 5 -24 9 -30 11 -5 1 -62
19 -125 39 -63 20 -124 38 -135 40 -11 2 -20 4 -20 5 0 1 -7 3 -15 5 -8 2 -44
11 -80 20 -90 23 -112 27 -135 29 -11 0 -22 4 -25 7 -3 4 -25 10 -50 13 -25 4
-55 9 -67 11 -39 8 -67 13 -118 19 -27 4 -57 9 -66 12 -19 5 -60 11 -131 19
-26 2 -60 7 -75 9 -30 5 -147 17 -203 21 -129 9 -215 17 -222 21 -4 3 -8 1 -8
-5 0 -7 -8 -7 -23 -2 -14 5 -450 10 -989 10 l-965 1 0 -1224z"/>
</g>
</svg>
